<?xml version="1.0" encoding="UTF-8"?>
<svg id="Layer_2" data-name="Layer 2" xmlns="http://www.w3.org/2000/svg" width="116" height="30" viewBox="0 0 116 30">
  <g id="logo">
    <path d="m35.1,18.1c-.1.5-.6.7-1,.7-.6,0-1.1-.4-1.1-1v-.4l3.7-11.2c.2-.6.5-1.1,1.3-1.1s1,.5,1.3,1.1l3.7,11.2c0,.1.1.3.1.4,0,.6-.5,1-1.1,1-.7,0-.9-.5-1.2-1.1l-.6-1.8h-4.4l-.7,2.2h0Zm1.2-4.1h3.3c-.6-1.9-1.2-3.8-1.6-5.7-.5,2-1.1,3.8-1.7,5.7Z" style="fill: #f40f21;"/>
    <path d="m54,17.9c0,.5-.4.8-.9.8s-.9-.4-.9-.8v-4.5l-1.5,3c-.2.3-.5.5-.9.5s-.7-.2-.9-.5l-1.5-3v4.5c0,.5-.4.8-1,.8s-.9-.4-.9-.8v-7.8c0-.5.4-.9,1-.9.4,0,.8.2.9.5l2.3,4.7,2.3-4.7c.2-.4.5-.5.9-.5.5,0,1,.4,1,.9l.1,7.8h0Z" style="fill: #f40f21;"/>
    <path d="m57.9,18.1c-.1.4-.5.6-.9.6-.5,0-1-.3-1-.9v-.3l2.6-7.5c.2-.5.4-.9,1.1-.9s.9.4,1.1.9l2.6,7.5v.3c0,.5-.4.9-1,.9-.3,0-.8-.2-.9-.6l-.5-1.3h-2.8l-.3,1.3h0Zm2.1-5.1c-.1-.4-.2-.9-.2-1.3,0,.4-.1.9-.2,1.3l-.7,2.3h1.8s-.7-2.3-.7-2.3Z" style="fill: #f40f21;"/>
    <path d="m70.3,14.7l1.8,2.7c.4.7-.2,1.4-.8,1.4-.3,0-.6-.1-.8-.4l-2.2-3.5h-.9v3c0,.5-.4.9-.9.9s-.9-.4-.9-.9v-7.6c0-.5.5-.9,1-.9h2.3c2.5,0,3.3,1.4,3.3,2.8-.1,1.2-.8,2.1-1.9,2.5h0Zm-1.5-3.7h-1.4v2.2h1.5c.9,0,1.4-.4,1.4-1.1,0-.5-.3-1.1-1.5-1.1Z" style="fill: #f40f21;"/>
    <path d="m76.1,18.1c-.1.4-.6.6-.9.6-.5,0-.9-.3-.9-.9v-.3l2.6-7.5c.2-.5.4-.9,1.1-.9s.9.4,1.1.9l2.6,7.5v.3c0,.5-.4.9-.9.9-.3,0-.8-.2-.9-.6l-.5-1.3h-2.8l-.5,1.3h0Zm2.1-5.1c-.1-.4-.2-.9-.2-1.3-.1.4-.1.9-.2,1.3l-.8,2.3h1.8l-.6-2.3Z" style="fill: #f40f21;"/>
    <path d="m88.6,18.3l-3.1-5.3v4.9c0,.5-.4.9-.9.9s-.9-.4-.9-.9v-7.8c0-.5.4-.9,1-.9.4,0,.7.2.9.5,1.2,2,1.8,3.2,3.1,5.4v-5c0-.5.4-.9.9-.9s.9.4.9.9v7.8c0,.5-.4.9-1,.9-.4,0-.8-.2-.9-.5h0Z" style="fill: #f40f21;"/>
    <path d="m94.8,11h-1.4c-.5,0-.9-.4-.9-.8s.4-.9.9-.9h4.7c.5,0,.9.4.9.9,0,.4-.4.8-.9.8h-1.4v6.9c0,.5-.4.9-.9.9s-.9-.4-.9-.9l-.1-6.9h0Z" style="fill: #f40f21;"/>
    <path d="m105.8,18.6h-3.5c-.7,0-1.2-.2-1.2-.9v-7.4c0-.5.4-.9,1-.9h3.6c.5,0,.9.4.9.9s-.4.8-.9.8h-2.7v2.1h2.5c.5,0,.9.4.9.8s-.4.9-.9.9h-2.5v2.1h2.9c.5,0,.9.4.9.8,0,.5-.5.9-1,.8h0Z" style="fill: #f40f21;"/>
    <path d="m110.4,18.1c-.1.4-.6.6-.9.6-.5,0-.9-.3-.9-.9v-.3l2.6-7.5c.2-.5.4-.9,1.1-.9s.9.4,1.1.9l2.6,7.5v.3c0,.5-.4.9-.9.9-.3,0-.8-.2-.9-.6l-.5-1.3h-2.8l-.5,1.3h0Zm2.1-5.1c-.1-.4-.2-.9-.2-1.3-.1.4-.1.9-.2,1.3l-.7,2.3h1.8s-.7-2.3-.7-2.3Z" style="fill: #f40f21;"/>
    <circle cx="15" cy="15" r="15" style="fill: #f40f21;"/>
    <path d="m15,7.7c.9,0,1.7.8,1.7,1.7s-.8,1.6-1.7,1.6-1.7-.8-1.7-1.7.8-1.6,1.7-1.6Z" style="fill: #fff;"/>
    <path d="m13.2,26.4c-5.5-.9-9.8-5.6-9.8-11.4,0-1.2.2-2.4.5-3.4,5.6.9,9.8,5.6,9.8,11.4.1,1.1-.1,2.3-.5,3.4Z" style="fill: #fff;"/>
    <path d="m17.9,26.2c-.5.1-1.1.2-1.7.3-.4,0-.8.1-1.2.1.3-.8.6-2.1.6-3.6,0-3.4-1.6-5.8-2-6.5-.7-1.1-1.7-2-2.7-2.8.8.2,4,1,6,4,1.4,2.2,1.5,4.5,1.5,5.3,0,1.3-.3,2.4-.5,3.2Z" style="fill: #fff;"/>
    <path d="m19.9,25.4c.2-.8.3-1.6.3-2.5,0-2.4-.7-4.6-2-6.4,1.8-2.6,4.6-4.5,7.8-5,.3,1.1.5,2.2.5,3.4.1,4.7-2.7,8.7-6.6,10.5Z" style="fill: #fff;"/>
  </g>
  <g>
    <path d="m37.11,25.58c-.17,0-.33-.03-.47-.11s-.25-.17-.33-.29-.12-.25-.12-.4c0-.2.05-.36.15-.47.1-.11.27-.19.51-.24.24-.05.57-.07.99-.07h.23v.21h-.22c-.27,0-.5,0-.68.02-.18.02-.32.05-.43.09s-.18.1-.22.17c-.04.07-.06.16-.06.27,0,.18.06.32.19.44.12.11.29.17.5.17.17,0,.32-.04.45-.12.13-.08.23-.2.3-.34.07-.14.11-.3.11-.49v-.63c0-.27-.05-.46-.16-.58-.1-.12-.27-.18-.5-.18-.17,0-.32.02-.47.07-.15.05-.3.13-.46.23l-.11-.2c.1-.07.2-.12.31-.17.11-.05.23-.09.35-.11.12-.03.24-.04.36-.04.2,0,.37.04.51.11.13.07.23.18.3.32.06.14.1.33.1.56v1.75h-.23v-.67h.06c-.04.15-.1.28-.19.38-.09.11-.2.19-.32.25-.13.06-.27.09-.43.09Z"/>
    <path d="m39.19,25.54v-2.69h.19l1.08,1.99,1.08-1.99h.19v2.69h-.21v-2.42h.12l-1.11,1.99h-.14l-1.11-1.99h.12v2.42h-.21Z"/>
    <path d="m43.53,25.58c-.17,0-.33-.03-.47-.11s-.25-.17-.33-.29-.12-.25-.12-.4c0-.2.05-.36.15-.47.1-.11.27-.19.51-.24.24-.05.57-.07.99-.07h.23v.21h-.22c-.27,0-.5,0-.68.02-.18.02-.32.05-.43.09s-.18.1-.22.17c-.04.07-.06.16-.06.27,0,.18.06.32.19.44.12.11.29.17.5.17.17,0,.32-.04.45-.12.13-.08.23-.2.3-.34.07-.14.11-.3.11-.49v-.63c0-.27-.05-.46-.16-.58-.1-.12-.27-.18-.5-.18-.17,0-.32.02-.47.07-.15.05-.3.13-.46.23l-.11-.2c.1-.07.2-.12.31-.17.11-.05.23-.09.35-.11.12-.03.24-.04.36-.04.2,0,.37.04.51.11.13.07.23.18.3.32.06.14.1.33.1.56v1.75h-.23v-.67h.06c-.04.15-.1.28-.19.38-.09.11-.2.19-.32.25-.13.06-.27.09-.43.09Z"/>
    <path d="m45.61,26.54v-3.68h.23v.7h-.06c.06-.23.18-.41.36-.54.18-.13.4-.2.66-.2.24,0,.45.06.63.17s.32.27.41.48.15.45.15.74-.05.53-.14.74c-.1.21-.23.37-.41.48-.18.11-.39.17-.64.17-.26,0-.48-.07-.66-.2-.18-.14-.3-.32-.36-.54h.06v1.7h-.23Zm1.19-1.17c.3,0,.53-.1.7-.31s.26-.49.26-.86-.09-.66-.26-.86-.41-.31-.7-.31-.53.1-.7.31-.26.49-.26.86.09.66.26.86.41.31.7.31Z"/>
    <path d="m49.6,25.58c-.17,0-.33-.03-.47-.11s-.25-.17-.33-.29-.12-.25-.12-.4c0-.2.05-.36.15-.47.1-.11.27-.19.51-.24.24-.05.57-.07.99-.07h.23v.21h-.22c-.27,0-.5,0-.68.02-.18.02-.32.05-.43.09s-.18.1-.22.17c-.04.07-.06.16-.06.27,0,.18.06.32.19.44.12.11.29.17.5.17.17,0,.32-.04.45-.12.13-.08.23-.2.3-.34.07-.14.11-.3.11-.49v-.63c0-.27-.05-.46-.16-.58-.1-.12-.27-.18-.5-.18-.17,0-.32.02-.47.07-.15.05-.3.13-.46.23l-.11-.2c.1-.07.2-.12.31-.17.11-.05.23-.09.35-.11.12-.03.24-.04.36-.04.2,0,.37.04.51.11.13.07.23.18.3.32.06.14.1.33.1.56v1.75h-.23v-.67h.06c-.04.15-.1.28-.19.38-.09.11-.2.19-.32.25-.13.06-.27.09-.43.09Z"/>
    <path d="m51.68,25.54v-2.69h.23v1.19h1.71v-1.19h.23v2.69h-.23v-1.29h-1.71v1.29h-.23Z"/>
    <path d="m55.39,25.54v-2.48h-1.03v-.21h2.29v.21h-1.03v2.48h-.23Z"/>
    <path d="m58.17,25.58c-.24,0-.46-.06-.64-.17-.18-.11-.32-.28-.42-.48-.1-.21-.15-.45-.15-.73s.05-.52.15-.73c.1-.21.24-.37.42-.48.18-.12.39-.17.64-.17s.46.06.64.17c.18.11.32.28.42.48.1.21.15.45.15.73s-.05.53-.15.73c-.1.21-.24.37-.42.48-.18.11-.39.17-.64.17Zm0-.22c.3,0,.53-.1.7-.31.17-.21.26-.49.26-.86s-.09-.66-.26-.86c-.17-.21-.41-.31-.7-.31s-.53.1-.7.31-.26.49-.26.86.09.66.26.86.41.31.7.31Z"/>
    <path d="m60.17,25.54v-2.69h1.18c.2,0,.36.03.49.08.13.05.23.13.29.24.07.1.1.24.1.39,0,.17-.06.32-.18.44-.12.12-.28.19-.48.21v-.07c.14,0,.27.03.39.09.11.06.2.14.26.24.06.1.09.22.09.34,0,.23-.08.4-.24.54-.16.13-.39.2-.68.2h-1.23Zm.23-1.46h.97c.2,0,.35-.05.46-.14s.16-.22.16-.37-.05-.29-.16-.38c-.11-.09-.26-.13-.46-.13h-.97v1.02Zm0,1.27h1.02c.21,0,.37-.05.49-.14.11-.09.17-.22.17-.39s-.06-.31-.17-.4c-.11-.09-.28-.14-.49-.14h-1.02v1.07Z"/>
    <path d="m63.1,25.54v-2.69h.23v1.02h.9c.33,0,.58.07.75.22s.26.35.26.61c0,.17-.04.32-.11.45-.08.13-.19.22-.34.29-.15.06-.34.1-.56.1h-1.14Zm.23-.2h.92c.24,0,.43-.05.56-.16.13-.1.2-.26.2-.48s-.07-.38-.2-.48c-.13-.1-.32-.15-.56-.15h-.92v1.27Zm2.38.2v-2.69h.23v2.69h-.23Z"/>
    <path d="m68.04,25.58c-.27,0-.5-.05-.69-.17-.19-.11-.34-.27-.45-.47-.11-.21-.16-.45-.16-.73s.05-.53.16-.74c.11-.21.25-.37.44-.49.19-.12.4-.17.65-.17s.43.05.59.16c.16.1.29.25.37.44.09.19.13.42.13.69v.14h-2.19v-.21h2.07l-.09.07c0-.34-.07-.6-.22-.79-.15-.19-.37-.29-.67-.29-.21,0-.4.05-.55.15-.15.1-.26.24-.34.41s-.11.37-.11.59v.03c0,.24.04.45.12.63.08.17.2.31.36.4s.34.14.56.14c.17,0,.32-.03.47-.08.15-.05.29-.14.44-.27l.11.19c-.11.11-.26.21-.44.27-.18.07-.37.1-.56.1Z"/>
    <path d="m72.97,25.54v-1.19c-.11.07-.23.13-.36.17-.13.04-.28.06-.43.06-.24,0-.45-.04-.61-.12-.16-.08-.28-.2-.35-.35s-.11-.35-.11-.59v-.67h.23v.66c0,.2.03.36.09.48.06.13.15.22.27.28.12.06.28.09.47.09.16,0,.31-.02.43-.05s.25-.1.36-.18v-1.27h.23v2.69h-.23Z"/>
    <path d="m74.99,25.58c-.17,0-.33-.03-.47-.11s-.25-.17-.33-.29-.12-.25-.12-.4c0-.2.05-.36.15-.47.1-.11.27-.19.5-.24.24-.05.57-.07.99-.07h.23v.21h-.22c-.27,0-.5,0-.68.02-.18.02-.32.05-.43.09-.1.04-.18.1-.22.17-.04.07-.06.16-.06.27,0,.18.06.32.19.44.12.11.29.17.5.17.17,0,.32-.04.45-.12.13-.08.23-.2.3-.34.07-.14.11-.3.11-.49v-.63c0-.27-.05-.46-.16-.58-.1-.12-.27-.18-.5-.18-.17,0-.32.02-.47.07-.15.05-.3.13-.46.23l-.11-.2c.1-.07.2-.12.31-.17.11-.05.23-.09.35-.11.12-.03.24-.04.36-.04.2,0,.37.04.5.11.13.07.23.18.3.32.07.14.1.33.1.56v1.75h-.23v-.67h.06c-.04.15-.1.28-.19.38-.09.11-.2.19-.32.25s-.27.09-.43.09Z"/>
    <path d="m77.06,25.54v-2.69h.22v2.51h-.13l1.87-2.51h.21v2.69h-.22v-2.51h.13l-1.87,2.51h-.21Zm1.08-3.04c-.12,0-.23-.02-.34-.07s-.22-.12-.32-.22c-.1-.1-.17-.24-.23-.4l.18-.08c.07.19.16.33.28.43.12.09.26.14.43.14s.31-.04.43-.12c.12-.08.22-.23.33-.44l.18.07c-.08.18-.17.32-.27.42s-.21.17-.32.21c-.11.04-.23.06-.35.06Z"/>
    <path d="m80.21,25.54v-2.69h.23v1.19h1.71v-1.19h.23v2.69h-.23v-1.29h-1.71v1.29h-.23Z"/>
    <path d="m83.36,25.54v-2.69h.23v1.02h.9c.33,0,.58.07.75.22.17.15.26.35.26.61,0,.17-.04.32-.11.45-.08.13-.19.22-.34.29-.15.06-.34.1-.56.1h-1.14Zm.23-.2h.92c.24,0,.43-.05.56-.16.13-.1.2-.26.2-.48s-.07-.38-.2-.48c-.13-.1-.32-.15-.56-.15h-.92v1.27Zm2.38.2v-2.69h.23v2.69h-.23Z"/>
    <path d="m88.3,25.58c-.27,0-.5-.05-.69-.17-.19-.11-.34-.27-.45-.47-.11-.21-.16-.45-.16-.73s.05-.53.16-.74.25-.37.44-.49c.19-.12.4-.17.65-.17s.43.05.59.16.29.25.37.44.13.42.13.69v.14h-2.19v-.21h2.07l-.09.07c0-.34-.07-.6-.22-.79-.15-.19-.37-.29-.67-.29-.21,0-.4.05-.55.15-.15.1-.26.24-.34.41-.08.17-.11.37-.11.59v.03c0,.24.04.45.12.63.08.17.2.31.36.4.16.09.34.14.56.14.17,0,.32-.03.47-.08s.29-.14.44-.27l.11.19c-.11.11-.26.21-.44.27-.18.07-.37.1-.56.1Z"/>
    <path d="m91.48,25.54v-2.69h.23v1.19h1.71v-1.19h.23v2.69h-.23v-1.29h-1.71v1.29h-.23Z"/>
    <path d="m95.45,25.58c-.17,0-.33-.03-.47-.11s-.25-.17-.33-.29-.12-.25-.12-.4c0-.2.05-.36.15-.47.1-.11.27-.19.5-.24.24-.05.57-.07.99-.07h.23v.21h-.22c-.27,0-.5,0-.68.02-.18.02-.32.05-.43.09-.1.04-.18.1-.22.17-.04.07-.06.16-.06.27,0,.18.06.32.19.44.12.11.29.17.5.17.17,0,.32-.04.45-.12.13-.08.23-.2.3-.34.07-.14.11-.3.11-.49v-.63c0-.27-.05-.46-.16-.58-.1-.12-.27-.18-.5-.18-.17,0-.32.02-.47.07-.15.05-.3.13-.46.23l-.11-.2c.1-.07.2-.12.31-.17.11-.05.23-.09.35-.11.12-.03.24-.04.36-.04.2,0,.37.04.5.11.13.07.23.18.3.32.07.14.1.33.1.56v1.75h-.23v-.67h.06c-.04.15-.1.28-.19.38-.09.11-.2.19-.32.25s-.27.09-.43.09Z"/>
    <path d="m97.52,25.54v-2.69h2.16v2.69h-.23v-2.49h-1.69v2.49h-.23Z"/>
    <path d="m100.66,25.54v-2.69h.22v2.51h-.13l1.87-2.51h.21v2.69h-.22v-2.51h.13l-1.87,2.51h-.21Z"/>
    <path d="m104.35,25.54v-2.48h-1.03v-.21h2.29v.21h-1.03v2.48h-.23Z"/>
    <path d="m106.12,25.54v-2.69h.23v1.19h.6l.97-1.19h.27l-1.03,1.27-.11-.07c.11.01.2.03.27.07.07.04.15.1.22.18s.16.21.26.37l.54.87h-.25l-.52-.83c-.07-.12-.14-.22-.21-.28s-.14-.11-.22-.14c-.08-.03-.18-.04-.31-.04h-.49v1.29h-.23Z"/>
    <path d="m108.88,25.54v-2.69h.22v2.51h-.13l1.87-2.51h.21v2.69h-.22v-2.51h.13l-1.87,2.51h-.21Z"/>
  </g>
</svg>