<?xml version="1.0" encoding="utf-8"?>
<!-- Generator: Adobe Illustrator 27.7.0, SVG Export Plug-In . SVG Version: 6.00 Build 0)  -->
<svg version="1.1" id="Layer_2_00000036951792897712913070000010769843569292023196_"
	 xmlns="http://www.w3.org/2000/svg" xmlns:xlink="http://www.w3.org/1999/xlink" x="0px" y="0px" viewBox="0 0 368.4 448.8"
	 style="enable-background:new 0 0 368.4 448.8;" xml:space="preserve">
<style type="text/css">
	.st0{fill:#F40F21;}
</style>
<g id="new_series">
	<path class="st0" d="M184.2,0C82.5,0,0,82.5,0,184.2s82.5,184.2,184.2,184.2s184.2-82.5,184.2-184.2S285.9,0,184.2,0z M184.2,94.1
		c11.4,0,20.7,9.2,20.7,20.6s-9.3,20.6-20.7,20.6s-20.7-9.2-20.7-20.6S172.8,94.1,184.2,94.1L184.2,94.1z M162.6,324.2
		C94.4,313.8,42.2,255.1,42.2,184.2c0-14.8,2.3-29,6.5-42.4C116.8,152.3,169,211,169,281.8C169,296.6,166.8,310.8,162.6,324.2z
		 M219.9,321.4c-6.1,1.6-13.2,3-21.3,3.8c-5.2,0.5-10,0.7-14.5,0.7c3.2-10,6.9-25.3,6.9-44.1c-0.1-42.1-19.2-71.7-24.8-79.9
		c-9.1-13.3-20.5-25-33.6-34.5c9.5,2.1,49.6,12.1,74.2,49.7c17.7,27.1,18.5,55.1,18.6,64.6C225.8,298.5,222.7,312.2,219.9,321.4
		L219.9,321.4z M244.3,312.6c2.2-9.9,3.4-20.2,3.4-30.7c0-29.2-8.9-56.4-24.1-78.9c21.7-32.1,56.2-54.9,96.3-61
		c4.2,13.4,6.5,27.6,6.5,42.4C326.2,241,292.7,290,244.3,312.6z"/>
	<g id="Amarantea">
		<path class="st0" d="M9.1,445.6c-0.6,2-2.8,3.2-4.3,3.2c-2.6,0-4.8-1.7-4.8-4.3c0-0.4,0.1-1.3,0.2-1.6l16.3-49.7
			c0.9-2.9,2.3-5,5.6-5s4.6,2.1,5.6,5L44.1,443c0.2,0.3,0.2,1.2,0.2,1.6c0,2.6-2.1,4.3-4.8,4.3c-3,0-4-2.1-5.1-5.1l-2.7-8.1H12.2
			C12.2,435.6,9.1,445.6,9.1,445.6z M14.8,427.5h14.5c-2.6-8.5-5.4-16.8-7.2-25.5C20,411,17.3,419.1,14.8,427.5z"/>
		<path class="st0" d="M93.2,444.9c0,2-1.9,3.7-4,3.7s-4.2-1.7-4.2-3.7v-20.2l-6.7,13.1c-0.8,1.5-2.2,2.2-3.9,2.2s-3.1-0.7-3.8-2.2
			l-6.7-13.1v20.2c0,2-1.9,3.7-4.2,3.7s-4-1.7-4-3.7v-34.8c0-2.2,1.8-3.9,4.2-3.9c1.9,0,3.3,0.8,4.1,2.3l10.4,20.7l10.4-20.8
			c0.8-1.7,2.4-2.2,4-2.2c2.4,0,4.2,1.8,4.2,3.9L93.2,444.9L93.2,444.9z"/>
		<path class="st0" d="M110.5,445.8c-0.6,1.7-2.5,2.8-3.9,2.8c-2.3,0-4.2-1.5-4.2-3.8c0-0.3,0.1-1,0.2-1.3l11.4-33.4
			c0.8-2.3,1.9-4,4.8-4s4,1.6,4.8,4l11.4,33.4c0.1,0.3,0.2,1,0.2,1.3c0,2.2-1.8,3.8-4.2,3.8c-1.5,0-3.4-1.1-4-2.8l-2.1-5.9h-12.5
			L110.5,445.8L110.5,445.8z M119.8,423.2c-0.5-1.7-0.8-3.9-1.1-5.7c-0.2,1.8-0.5,4-1.1,5.7l-3.1,10h8.2L119.8,423.2L119.8,423.2z"
			/>
		<path class="st0" d="M165.5,430.4l8,12.1c1.9,2.9-0.9,6-3.6,6c-1.5,0-2.7-0.6-3.5-1.8l-9.9-15.4h-4v13.4c0,2-1.9,3.9-4.2,3.9
			s-4-1.8-4-3.9V411c0-2.3,2.1-4.2,4.4-4.2h10.2c11,0,14.5,6.3,14.5,12.4C173.6,425,170.5,428.8,165.5,430.4L165.5,430.4z
			 M158.9,414.2h-6.2v9.7h6.6c4,0,6.2-1.7,6.2-4.8C165.4,416.7,164.2,414.2,158.9,414.2L158.9,414.2z"/>
		<path class="st0" d="M191.1,445.8c-0.6,1.7-2.5,2.8-3.9,2.8c-2.3,0-4.2-1.5-4.2-3.8c0-0.3,0.1-1,0.2-1.3l11.4-33.4
			c0.8-2.3,1.9-4,4.8-4s4,1.6,4.8,4l11.4,33.4c0.1,0.3,0.2,1,0.2,1.3c0,2.2-1.8,3.8-4.2,3.8c-1.5,0-3.4-1.1-4-2.8l-2.1-5.9h-12.5
			L191.1,445.8L191.1,445.8z M200.5,423.2c-0.5-1.7-0.8-3.9-1.1-5.7c-0.2,1.8-0.5,4-1.1,5.7l-3.1,10h8.2L200.5,423.2L200.5,423.2z"
			/>
		<path class="st0" d="M246.6,446.5L233,422.9v21.9c0,2-1.9,3.8-4.2,3.8s-4-1.8-4-3.8v-34.6c0-2.3,1.8-4,4.3-4c1.6,0,3.2,0.9,4,2.2
			c5.2,9,8.2,14.4,13.6,23.8V410c0-2,1.9-3.8,4.2-3.8s4,1.8,4,3.8v34.6c0,2.2-1.8,4-4.3,4C249,448.6,247.4,447.8,246.6,446.5
			L246.6,446.5z"/>
		<path class="st0" d="M274.5,414.2h-6.2c-2.3,0-4.1-1.7-4.1-3.7c0-1.6,1.8-3.8,4.1-3.8h20.6c2.1,0,4.2,1.6,4.2,3.8
			c0,2-1.9,3.7-4.2,3.7h-6.2v30.6c0,2-1.9,3.8-4.1,3.8s-4.1-1.8-4.1-3.8L274.5,414.2L274.5,414.2z"/>
		<path class="st0" d="M323.3,448.1h-15.5c-2.9,0-5.5-1-5.5-4.2v-33c0-2,1.9-4.2,4.5-4.2h15.9c2.2,0,4.1,1.8,4.1,3.8
			s-1.9,3.6-4.1,3.6h-12.2v9.4h11.1c2,0,4,1.6,4,3.7s-1.8,3.8-4,3.8h-11.1v9.5h12.8c2.2,0,4.1,1.6,4.1,3.6
			C327.4,446.3,325.5,448,323.3,448.1L323.3,448.1z"/>
		<path class="st0" d="M343.7,445.8c-0.6,1.7-2.5,2.8-3.9,2.8c-2.3,0-4.2-1.5-4.2-3.8c0-0.3,0.1-1,0.2-1.3l11.4-33.4
			c0.8-2.3,1.9-4,4.8-4s4,1.6,4.8,4l11.4,33.4c0.1,0.3,0.2,1,0.2,1.3c0,2.2-1.8,3.8-4.2,3.8c-1.5,0-3.4-1.1-4-2.8l-2-5.9h-12.5
			L343.7,445.8L343.7,445.8z M353.1,423.2c-0.5-1.7-0.8-3.9-1-5.7c-0.2,1.8-0.5,4-1.1,5.7l-3.1,10h8.2L353.1,423.2L353.1,423.2z"/>
	</g>
</g>
</svg>
