<?xml version="1.0" encoding="utf-8"?>
<!-- Generator: Adobe Illustrator 27.7.0, SVG Export Plug-In . SVG Version: 6.00 Build 0)  -->
<svg version="1.1" id="Layer_2_00000036238374610245518120000007183768758196022714_"
	 xmlns="http://www.w3.org/2000/svg" xmlns:xlink="http://www.w3.org/1999/xlink" x="0px" y="0px" viewBox="0 0 116 30"
	 style="enable-background:new 0 0 116 30;" xml:space="preserve">
<style type="text/css">
	.st0{fill:#D41F31;}
	.st1{opacity:0.51;}
</style>
<g>
	<path class="st0" d="M12,0C5.5,0,0.1,5.3,0.1,11.8S5.5,23.7,12,23.7c6.5,0,11.8-5.3,11.8-11.8S18.5,0,12,0z M12,6.1
		c0.7,0,1.3,0.6,1.3,1.3c0,0.7-0.6,1.3-1.3,1.3c-0.7,0-1.3-0.6-1.3-1.3C10.7,6.6,11.3,6.1,12,6.1z M10.6,20.8
		c-4.4-0.7-7.7-4.4-7.7-9c0-0.9,0.1-1.9,0.4-2.7c4.4,0.7,7.7,4.4,7.7,9C11,19.1,10.9,20,10.6,20.8z M14.3,20.7
		c-0.4,0.1-0.9,0.2-1.4,0.2c-0.3,0-0.6,0-0.9,0c0.2-0.6,0.4-1.6,0.4-2.8c0-2.7-1.2-4.6-1.6-5.1c-0.6-0.9-1.3-1.6-2.2-2.2
		c0.6,0.1,3.2,0.8,4.8,3.2c1.1,1.7,1.2,3.5,1.2,4.2C14.7,19.2,14.5,20.1,14.3,20.7z M15.9,20.1c0.1-0.6,0.2-1.3,0.2-2
		c0-1.9-0.6-3.6-1.6-5.1c1.4-2.1,3.6-3.5,6.2-3.9c0.3,0.9,0.4,1.8,0.4,2.7C21.1,15.5,19,18.7,15.9,20.1z"/>
	<g>
		<path class="st0" d="M0.6,29.8c0,0.1-0.1,0.2-0.2,0.2c-0.1,0-0.2-0.1-0.2-0.2c0,0,0-0.1,0-0.1l1.1-3.5c0.1-0.2,0.1-0.3,0.3-0.3
			c0.2,0,0.2,0.1,0.3,0.3l1.1,3.5c0,0,0,0.1,0,0.1c0,0.1-0.1,0.2-0.2,0.2c-0.1,0-0.2-0.1-0.2-0.2l-0.2-0.8H0.8L0.6,29.8z M1,28.6
			h1.2l-0.6-1.9L1,28.6z"/>
		<path class="st0" d="M6.1,29.8C6.1,29.9,6,30,5.9,30c-0.1,0-0.2-0.1-0.2-0.2v-1.6l-0.5,1.1c0,0.1-0.1,0.1-0.2,0.1s-0.2,0-0.2-0.1
			l-0.5-1.1v1.6C4.2,29.9,4.1,30,4,30c-0.1,0-0.2-0.1-0.2-0.2v-2.4c0-0.1,0.1-0.2,0.2-0.2c0.1,0,0.2,0,0.2,0.1l0.7,1.5l0.7-1.5
			c0-0.1,0.1-0.1,0.2-0.1c0.1,0,0.2,0.1,0.2,0.2V29.8z"/>
		<path class="st0" d="M7.2,29.8C7.1,29.9,7,30,7,30c-0.1,0-0.2-0.1-0.2-0.2c0,0,0-0.1,0-0.1l0.8-2.3c0-0.1,0.1-0.2,0.3-0.2
			c0.2,0,0.2,0.1,0.3,0.2l0.8,2.3c0,0,0,0.1,0,0.1c0,0.1-0.1,0.2-0.2,0.2c-0.1,0-0.2-0.1-0.2-0.2l-0.1-0.4H7.3L7.2,29.8z M7.4,29
			h0.7c-0.1-0.4-0.3-0.8-0.3-1.2C7.7,28.2,7.6,28.6,7.4,29z"/>
		<path class="st0" d="M10.7,28.7c0.2,0.3,0.4,0.6,0.6,0.9c0,0,0,0.1,0,0.1c0,0.1-0.1,0.2-0.2,0.2c-0.1,0-0.1,0-0.2-0.1l-0.7-1.1
			H9.9v1c0,0.1-0.1,0.2-0.2,0.2c-0.1,0-0.2-0.1-0.2-0.2v-2.4c0-0.1,0.1-0.2,0.2-0.2h0.7c0.7,0,0.9,0.4,0.9,0.8
			C11.3,28.4,11.1,28.6,10.7,28.7z M10.4,27.6H9.9v0.8h0.5c0.3,0,0.5-0.1,0.5-0.4C10.9,27.8,10.8,27.6,10.4,27.6z"/>
		<path class="st0" d="M12.4,29.8c0,0.1-0.1,0.1-0.2,0.1c-0.1,0-0.2-0.1-0.2-0.2c0,0,0-0.1,0-0.1l0.8-2.3c0-0.1,0.1-0.2,0.3-0.2
			c0.2,0,0.2,0.1,0.3,0.2l0.8,2.3c0,0,0,0.1,0,0.1c0,0.1-0.1,0.2-0.2,0.2c-0.1,0-0.2-0.1-0.2-0.2l-0.1-0.4h-0.9L12.4,29.8z M12.6,29
			h0.7c-0.1-0.4-0.3-0.8-0.3-1.2C12.9,28.2,12.7,28.6,12.6,29z"/>
		<path class="st0" d="M16.1,29.9l-1-1.8v1.7c0,0.1-0.1,0.2-0.2,0.2c-0.1,0-0.2-0.1-0.2-0.2v-2.4c0-0.1,0.1-0.2,0.2-0.2
			c0.1,0,0.2,0,0.2,0.1c0.2,0.3,0.8,1.5,1,1.8v-1.7c0-0.1,0.1-0.2,0.2-0.2c0.1,0,0.2,0.1,0.2,0.2v2.4c0,0.1-0.1,0.2-0.2,0.2
			C16.2,30,16.1,29.9,16.1,29.9z"/>
		<path class="st0" d="M17.9,27.6h-0.5c-0.1,0-0.2-0.1-0.2-0.2c0-0.1,0.1-0.2,0.2-0.2h1.4c0.1,0,0.2,0.1,0.2,0.2
			c0,0.1-0.1,0.2-0.2,0.2h-0.5v2.2c0,0.1-0.1,0.2-0.2,0.2c-0.1,0-0.2-0.1-0.2-0.2V27.6z"/>
		<path class="st0" d="M21,29.9h-1c-0.2,0-0.3-0.1-0.3-0.2v-2.3c0-0.1,0.1-0.2,0.2-0.2h1.1c0.1,0,0.2,0.1,0.2,0.2
			c0,0.1-0.1,0.2-0.2,0.2h-0.9v0.8h0.8c0.1,0,0.2,0.1,0.2,0.2c0,0.1-0.1,0.2-0.2,0.2h-0.8v0.8H21c0.1,0,0.2,0.1,0.2,0.2
			C21.2,29.9,21.1,29.9,21,29.9z"/>
		<path class="st0" d="M22.2,29.8c0,0.1-0.1,0.1-0.2,0.1c-0.1,0-0.2-0.1-0.2-0.2c0,0,0-0.1,0-0.1l0.8-2.3c0-0.1,0.1-0.2,0.3-0.2
			c0.2,0,0.2,0.1,0.3,0.2l0.8,2.3c0,0,0,0.1,0,0.1c0,0.1-0.1,0.2-0.2,0.2c-0.1,0-0.2-0.1-0.2-0.2l-0.1-0.4h-0.9L22.2,29.8z M22.5,29
			h0.7c-0.1-0.4-0.3-0.8-0.3-1.2C22.7,28.2,22.6,28.6,22.5,29z"/>
	</g>
</g>
<g>
	<g class="st1">
		<path d="M38.9,18.5c-0.6,0-1.1-0.1-1.5-0.2c-0.4-0.1-0.7-0.3-1-0.6s-0.4-0.5-0.5-0.8c-0.1-0.3-0.2-0.7-0.2-1c0-0.5,0.1-1,0.3-1.4
			s0.5-0.7,1-0.9c0.4-0.2,1-0.3,1.8-0.3h0.2l0,0.4h-0.2c-0.6,0-1.1,0.1-1.4,0.2s-0.7,0.4-0.9,0.7s-0.3,0.8-0.3,1.3
			c0,0.5,0.1,0.9,0.3,1.2c0.2,0.3,0.5,0.6,0.9,0.7c0.4,0.2,0.9,0.2,1.5,0.2h0.2l0,0.4H38.9z M38.9,19.3c0-0.2,0-0.3,0-0.5
			s0-0.3,0-0.5l0,0c0-0.2,0-0.4,0-0.6c0-0.2,0-0.4,0-0.7v-2.3c0-0.2,0-0.5,0-0.7c0-0.2,0-0.4,0-0.6l0,0c0-0.2,0-0.3,0-0.5
			s0-0.3,0-0.5h0.5c0,0.2,0,0.3,0,0.5s0,0.3,0,0.5l0,0c0,0.2,0,0.4,0,0.6c0,0.2,0,0.4,0,0.7V17c0,0.2,0,0.5,0,0.7s0,0.4,0,0.6l0,0
			c0,0.2,0,0.3,0,0.5s0,0.3,0,0.5H38.9z M39.2,18.5l0-0.4h0.2c0.6,0,1.1-0.1,1.5-0.2c0.4-0.2,0.7-0.4,0.9-0.7
			c0.2-0.3,0.3-0.7,0.3-1.2c0-0.5-0.1-0.9-0.3-1.3s-0.5-0.6-0.9-0.7c-0.4-0.2-0.9-0.2-1.5-0.2h-0.2l0-0.4h0.2c0.7,0,1.3,0.1,1.8,0.3
			c0.4,0.2,0.8,0.5,1,0.9c0.2,0.4,0.3,0.9,0.3,1.4c0,0.5-0.1,0.9-0.3,1.3c-0.2,0.4-0.5,0.7-1,0.9c-0.5,0.2-1.1,0.3-1.8,0.3H39.2z"/>
		<path d="M43.7,19c0-0.3,0-0.7,0-1s0-0.6,0-1v-0.5c0-0.2,0-0.5,0-0.7c0-0.2,0-0.4,0-0.7c0-0.2,0-0.4,0-0.7l0.4,0c0,0.2,0,0.4,0,0.7
			s0,0.4,0,0.7c0,0.2,0,0.5,0,0.7v1.8h0l1.1-1.6c0.2-0.4,0.5-0.7,0.7-1.1c0.2-0.4,0.5-0.7,0.7-1.1h0.4c0,0.2,0,0.4,0,0.7
			c0,0.2,0,0.4,0,0.7c0,0.2,0,0.5,0,0.7v0.5c0,0.4,0,0.7,0,1s0,0.6,0,1h-0.4c0-0.3,0-0.7,0-1s0-0.6,0-1v-1.8h0l-1.1,1.6
			c-0.2,0.4-0.5,0.7-0.7,1.1s-0.5,0.7-0.7,1.1H43.7z"/>
		<path d="M48.8,20.8c0-0.3,0-0.7,0-1s0-0.7,0-1v-2.2c0-0.3,0-0.7,0-1c0-0.3,0-0.7,0-1l0.4,0l0,0.6h0.1c0.1-0.1,0.2-0.2,0.3-0.3
			c0.1-0.1,0.3-0.2,0.5-0.2s0.4-0.1,0.6-0.1c0.4,0,0.8,0.1,1.1,0.3c0.3,0.2,0.5,0.5,0.7,0.8c0.2,0.3,0.2,0.7,0.2,1.2
			c0,0.4-0.1,0.8-0.2,1.2s-0.4,0.6-0.7,0.9s-0.7,0.3-1.1,0.3c-0.2,0-0.4,0-0.6-0.1c-0.2-0.1-0.3-0.1-0.5-0.2s-0.3-0.2-0.4-0.4h-0.1
			v0.4c0,0.4,0,0.7,0,1s0,0.6,0,1L48.8,20.8z M50.7,18.7c0.4,0,0.7-0.1,0.9-0.3c0.2-0.2,0.4-0.4,0.5-0.7c0.1-0.3,0.2-0.6,0.2-0.9
			c0-0.3-0.1-0.7-0.2-1c-0.1-0.3-0.3-0.5-0.5-0.7c-0.2-0.2-0.5-0.3-0.9-0.3c-0.2,0-0.4,0-0.5,0.1c-0.2,0.1-0.3,0.1-0.5,0.2
			c-0.2,0.1-0.3,0.2-0.4,0.4v2.2c0.1,0.2,0.2,0.3,0.4,0.5s0.3,0.2,0.5,0.3C50.3,18.7,50.5,18.7,50.7,18.7z"/>
		<path d="M53.7,19c0-0.3,0.1-0.6,0.1-1c0-0.3,0.1-0.6,0.1-0.9l0.1-0.6c0-0.3,0.1-0.6,0.1-1c0-0.3,0.1-0.7,0.1-1h0.4
			c0.1,0.3,0.3,0.6,0.4,1c0.1,0.3,0.3,0.6,0.4,1l0.8,1.9h0.1l0.8-1.9c0.1-0.3,0.3-0.7,0.4-1c0.1-0.3,0.3-0.6,0.4-1h0.4
			c0,0.3,0.1,0.6,0.1,1s0.1,0.7,0.1,1l0.1,0.6c0,0.3,0.1,0.6,0.1,0.9c0,0.3,0.1,0.6,0.1,1h-0.4c0-0.4-0.1-0.8-0.1-1.1
			s-0.1-0.8-0.1-1.1l-0.2-1.4h0l-0.7,1.5c-0.2,0.4-0.3,0.7-0.5,1.1c-0.2,0.4-0.3,0.7-0.5,1.1h-0.3c-0.2-0.4-0.3-0.7-0.5-1.1
			c-0.2-0.4-0.3-0.7-0.5-1.1l-0.7-1.6h0l-0.2,1.4c0,0.4-0.1,0.8-0.1,1.1s-0.1,0.8-0.1,1.1H53.7z"/>
		<path d="M62.3,19.1c-0.5,0-0.9-0.1-1.3-0.3c-0.3-0.2-0.6-0.5-0.7-0.8c-0.2-0.4-0.2-0.8-0.2-1.2c0-0.4,0.1-0.8,0.2-1.2
			c0.2-0.3,0.4-0.6,0.7-0.8s0.7-0.3,1.1-0.3c0.4,0,0.7,0.1,0.9,0.2c0.3,0.1,0.5,0.4,0.6,0.6c0.1,0.3,0.2,0.6,0.2,1
			c0,0.1,0,0.2,0,0.3s0,0.2,0,0.3l-0.4-0.3c0,0,0-0.1,0-0.1s0-0.1,0-0.1c0-0.5-0.1-0.9-0.4-1.1c-0.2-0.2-0.6-0.4-1-0.4
			c-0.3,0-0.6,0.1-0.9,0.2c-0.2,0.2-0.4,0.4-0.5,0.7c-0.1,0.3-0.2,0.6-0.2,1v0c0,0.4,0.1,0.7,0.2,1c0.1,0.3,0.3,0.5,0.6,0.7
			c0.3,0.2,0.6,0.2,1,0.2c0.2,0,0.3,0,0.5,0s0.3-0.1,0.5-0.1s0.3-0.1,0.4-0.2l0,0.4c-0.1,0.1-0.2,0.1-0.4,0.2
			c-0.1,0-0.3,0.1-0.5,0.1C62.6,19.1,62.5,19.1,62.3,19.1z M60.2,16.9v-0.3l3.2,0l0.3,0.1v0.3H60.2z"/>
		<path d="M65.1,19c0-0.3,0-0.7,0-1s0-0.6,0-1v-0.5c0-0.2,0-0.5,0-0.7c0-0.2,0-0.4,0-0.7c0-0.2,0-0.4,0-0.7l0.4,0c0,0.2,0,0.4,0,0.7
			s0,0.4,0,0.7s0,0.5,0,0.7v0.5c0,0.4,0,0.7,0,1s0,0.6,0,1H65.1z M65.3,17v-0.4h3V17H65.3z M68.1,19c0-0.3,0-0.7,0-1s0-0.6,0-1v-0.5
			c0-0.2,0-0.5,0-0.7c0-0.2,0-0.4,0-0.7c0-0.2,0-0.4,0-0.7h0.4c0,0.2,0,0.4,0,0.7c0,0.2,0,0.4,0,0.7c0,0.2,0,0.5,0,0.7v0.5
			c0,0.4,0,0.7,0,1s0,0.6,0,1H68.1z"/>
		<path d="M70.1,19c0-0.3,0-0.7,0-1s0-0.6,0-1v-0.5c0-0.2,0-0.5,0-0.7c0-0.2,0-0.4,0-0.7c0-0.2,0-0.4,0-0.7l0.4,0c0,0.2,0,0.4,0,0.7
			s0,0.4,0,0.7s0,0.5,0,0.7v0.5c0,0.4,0,0.7,0,1s0,0.6,0,1H70.1z M70.4,17v-0.4h3V17H70.4z M73.2,19c0-0.3,0-0.7,0-1s0-0.6,0-1v-0.5
			c0-0.2,0-0.5,0-0.7c0-0.2,0-0.4,0-0.7c0-0.2,0-0.4,0-0.7h0.4c0,0.2,0,0.4,0,0.7c0,0.2,0,0.4,0,0.7c0,0.2,0,0.5,0,0.7v0.5
			c0,0.4,0,0.7,0,1s0,0.6,0,1H73.2z"/>
		<path d="M75.2,19c0-0.3,0-0.7,0-1s0-0.6,0-1v-0.5c0-0.2,0-0.5,0-0.7c0-0.2,0-0.4,0-0.7c0-0.2,0-0.4,0-0.7l0.4,0c0,0.3,0,0.7,0,1
			c0,0.3,0,0.7,0,1c0,0.4,0,0.8,0,1.1s0,0.7,0,1h1.1c0.3,0,0.5,0,0.7-0.1c0.2-0.1,0.4-0.2,0.5-0.3s0.2-0.4,0.2-0.7
			c0-0.2,0-0.4-0.1-0.6s-0.2-0.2-0.3-0.3c-0.1-0.1-0.2-0.1-0.4-0.1c-0.1,0-0.3,0-0.4,0h-1.4l-0.1-0.4c0.2,0,0.4,0,0.7,0
			c0.3,0,0.6,0,0.8,0c0.4,0,0.7,0.1,0.9,0.2c0.2,0.1,0.4,0.3,0.5,0.5s0.2,0.5,0.2,0.8c0,0.3-0.1,0.5-0.2,0.8
			c-0.1,0.2-0.3,0.4-0.5,0.5C77.6,19,77.2,19,76.8,19c-0.3,0-0.6,0-0.9,0S75.4,19,75.2,19z M79.4,19c0-0.3,0-0.7,0-1s0-0.6,0-1v-0.5
			c0-0.2,0-0.5,0-0.7c0-0.2,0-0.4,0-0.7c0-0.2,0-0.4,0-0.7l0.4,0c0,0.2,0,0.4,0,0.7s0,0.4,0,0.7s0,0.5,0,0.7v0.5c0,0.4,0,0.7,0,1
			s0,0.6,0,1H79.4z"/>
		<path d="M81.5,19c0-0.3,0-0.7,0-1s0-0.6,0-1v-0.5c0-0.2,0-0.5,0-0.7c0-0.2,0-0.4,0-0.7c0-0.2,0-0.4,0-0.7l0.4,0c0,0.2,0,0.4,0,0.7
			s0,0.4,0,0.7c0,0.2,0,0.5,0,0.7v1.8h0l1.1-1.6c0.2-0.4,0.5-0.7,0.7-1.1c0.2-0.4,0.5-0.7,0.7-1.1H85c0,0.2,0,0.4,0,0.7
			c0,0.2,0,0.4,0,0.7c0,0.2,0,0.5,0,0.7v0.5c0,0.4,0,0.7,0,1s0,0.6,0,1h-0.4c0-0.3,0-0.7,0-1s0-0.6,0-1v-1.8h0l-1.1,1.6
			c-0.2,0.4-0.5,0.7-0.7,1.1s-0.5,0.7-0.7,1.1H81.5z M83.2,13.8c-0.5,0-0.8-0.1-1-0.4c-0.2-0.3-0.4-0.6-0.4-1l0.4,0
			c0,0.4,0.1,0.6,0.3,0.8c0.2,0.2,0.4,0.3,0.8,0.3c0.2,0,0.4,0,0.6-0.1c0.1-0.1,0.3-0.2,0.3-0.3c0.1-0.2,0.1-0.3,0.1-0.6h0.4
			c0,0.4-0.1,0.7-0.3,1C84,13.7,83.7,13.8,83.2,13.8z"/>
		<path d="M38.1,29.9c-0.3,0-0.7-0.1-0.9-0.2s-0.5-0.3-0.7-0.5c-0.2-0.2-0.3-0.5-0.4-0.8c-0.1-0.3-0.1-0.6-0.1-0.9
			c0-0.4,0.1-0.8,0.3-1.2s0.4-0.6,0.8-0.8c0.3-0.2,0.7-0.3,1.1-0.3c0.3,0,0.6,0.1,0.9,0.2c0.3,0.1,0.5,0.3,0.7,0.5
			c0.2,0.2,0.3,0.5,0.4,0.7c0.1,0.3,0.1,0.6,0.1,0.9c0,0.4-0.1,0.8-0.3,1.2c-0.2,0.4-0.4,0.6-0.7,0.8C38.9,29.8,38.5,29.9,38.1,29.9
			z M38.1,29.5c0.4,0,0.7-0.1,1-0.3c0.3-0.2,0.4-0.4,0.6-0.7c0.1-0.3,0.2-0.6,0.2-0.9c0-0.4-0.1-0.7-0.2-1c-0.1-0.3-0.3-0.5-0.6-0.7
			c-0.3-0.2-0.6-0.2-0.9-0.2c-0.4,0-0.7,0.1-1,0.3c-0.3,0.2-0.5,0.4-0.6,0.7c-0.1,0.3-0.2,0.6-0.2,1c0,0.3,0.1,0.6,0.2,0.9
			c0.1,0.3,0.3,0.5,0.6,0.7C37.4,29.4,37.7,29.5,38.1,29.5z"/>
		<path d="M41.6,29.8c0-0.3,0-0.7,0-1s0-0.6,0-1v-0.5c0-0.2,0-0.5,0-0.7c0-0.2,0-0.4,0-0.7c0-0.2,0-0.4,0-0.7l0.4,0
			c0,0.2,0,0.4,0,0.7s0,0.4,0,0.7c0,0.2,0,0.5,0,0.7v0.5c0,0.4,0,0.7,0,1s0,0.6,0,1H41.6z M41.8,27.8v-0.4h3v0.4H41.8z M44.6,29.8
			c0-0.3,0-0.7,0-1s0-0.6,0-1v-0.5c0-0.2,0-0.5,0-0.7c0-0.2,0-0.4,0-0.7c0-0.2,0-0.4,0-0.7H45c0,0.2,0,0.4,0,0.7c0,0.2,0,0.4,0,0.7
			c0,0.2,0,0.5,0,0.7v0.5c0,0.4,0,0.7,0,1s0,0.6,0,1H44.6z"/>
		<path d="M46.3,29.9c0,0-0.1,0-0.1,0c0,0-0.1,0-0.1,0c0,0-0.1,0-0.1,0l0-0.4c0.1,0,0.1,0,0.2,0c0.1,0,0.1,0,0.1,0
			c0.2,0,0.3-0.1,0.4-0.2s0.2-0.3,0.3-0.6s0.1-0.5,0.1-0.8c0-0.3,0.1-0.5,0.1-0.8c0-0.3,0-0.6,0.1-0.9c0-0.3,0-0.6,0.1-0.9h2.9
			c0,0.2,0,0.4,0,0.7c0,0.2,0,0.4,0,0.7c0,0.2,0,0.5,0,0.7v0.5c0,0.4,0,0.7,0,1s0,0.6,0,1h-0.4c0-0.3,0-0.7,0-1s0-0.6,0-1v-0.5
			c0-0.2,0-0.5,0-0.7s0-0.4,0-0.6c0-0.2,0-0.4,0-0.6l0.2,0.3h-2.5l0.2-0.3c0,0.2,0,0.4,0,0.6c0,0.2,0,0.4,0,0.6c0,0.2,0,0.4,0,0.6
			c0,0.3-0.1,0.6-0.1,0.9c0,0.3-0.1,0.6-0.2,0.8s-0.2,0.4-0.3,0.6C46.8,29.8,46.6,29.9,46.3,29.9z"/>
		<path d="M52.9,29.9c-0.3,0-0.5-0.1-0.7-0.2c-0.2-0.1-0.4-0.2-0.5-0.4c-0.1-0.2-0.2-0.4-0.2-0.7c0-0.2,0-0.4,0.1-0.6
			c0.1-0.2,0.2-0.3,0.3-0.4c0.1-0.1,0.3-0.2,0.5-0.2c0.2-0.1,0.3-0.1,0.5-0.1l1.5-0.3c0-0.4,0-0.7-0.1-0.9c-0.1-0.2-0.2-0.3-0.4-0.4
			c-0.2-0.1-0.4-0.1-0.6-0.1c-0.1,0-0.2,0-0.3,0c-0.1,0-0.2,0-0.4,0.1s-0.3,0.1-0.4,0.1s-0.3,0.1-0.5,0.2l0-0.4
			c0.1,0,0.2-0.1,0.4-0.1c0.1,0,0.3-0.1,0.4-0.1s0.3-0.1,0.4-0.1c0.1,0,0.3,0,0.4,0c0.3,0,0.6,0.1,0.8,0.2c0.2,0.1,0.4,0.3,0.5,0.5
			c0.1,0.2,0.2,0.5,0.2,0.9c0,0.1,0,0.3,0,0.5c0,0.2,0,0.4,0,0.6v0.6c0,0.2,0,0.4,0,0.6c0,0.2,0,0.4,0,0.7h-0.4l0-0.7h-0.1
			c-0.1,0.1-0.2,0.3-0.4,0.4c-0.2,0.1-0.3,0.2-0.5,0.3C53.3,29.9,53.1,29.9,52.9,29.9z M52.9,29.5c0.2,0,0.4,0,0.6-0.1
			c0.2-0.1,0.4-0.2,0.5-0.3s0.3-0.3,0.4-0.6l0-1.2c-0.1,0-0.1,0.1-0.2,0.1c-0.1,0-0.2,0.1-0.4,0.1c-0.2,0-0.4,0.1-0.8,0.2
			c-0.2,0-0.4,0.1-0.6,0.2c-0.2,0.1-0.3,0.2-0.4,0.3s-0.2,0.3-0.2,0.5c0,0.3,0.1,0.5,0.3,0.7S52.7,29.5,52.9,29.5z"/>
		<path d="M56.4,29.8c0-0.3,0-0.7,0-1s0-0.6,0-1v-0.5c0-0.2,0-0.5,0-0.7c0-0.2,0-0.4,0-0.7c0-0.2,0-0.4,0-0.7l0.4,0
			c0,0.2,0,0.4,0,0.7c0,0.2,0,0.4,0,0.7s0,0.5,0,0.7v1.8h0l1.1-1.6c0.2-0.4,0.5-0.7,0.7-1.1c0.2-0.4,0.5-0.7,0.7-1.1h0.4
			c0,0.2,0,0.4,0,0.7c0,0.2,0,0.4,0,0.7c0,0.2,0,0.5,0,0.7v0.5c0,0.4,0,0.7,0,1s0,0.6,0,1h-0.4c0-0.3,0-0.7,0-1c0-0.3,0-0.6,0-1
			v-1.8h0l-1.1,1.6c-0.2,0.4-0.5,0.7-0.7,1.1s-0.5,0.7-0.7,1.1H56.4z M58.2,24.6c-0.5,0-0.8-0.1-1-0.4c-0.2-0.3-0.4-0.6-0.4-1l0.4,0
			c0,0.4,0.1,0.6,0.3,0.8s0.4,0.3,0.8,0.3c0.2,0,0.4,0,0.6-0.1c0.2-0.1,0.3-0.2,0.3-0.3c0.1-0.2,0.1-0.3,0.1-0.6h0.4
			c0,0.4-0.1,0.7-0.3,1C59,24.5,58.7,24.6,58.2,24.6z"/>
		<path d="M61.6,29.8c0-0.3,0-0.7,0-1s0-0.6,0-1v-0.5c0-0.2,0-0.5,0-0.7c0-0.2,0-0.4,0-0.7c0-0.2,0-0.4,0-0.7l0.4,0
			c0,0.2,0,0.4,0,0.7s0,0.4,0,0.7c0,0.2,0,0.5,0,0.7v0.5c0,0.4,0,0.7,0,1s0,0.6,0,1H61.6z M61.8,27.8v-0.4h3v0.4H61.8z M64.6,29.8
			c0-0.3,0-0.7,0-1s0-0.6,0-1v-0.5c0-0.2,0-0.5,0-0.7c0-0.2,0-0.4,0-0.7c0-0.2,0-0.4,0-0.7H65c0,0.2,0,0.4,0,0.7c0,0.2,0,0.4,0,0.7
			c0,0.2,0,0.5,0,0.7v0.5c0,0.4,0,0.7,0,1s0,0.6,0,1H64.6z"/>
		<path d="M68,29.8c0-0.3,0.1-0.6,0.1-1c0-0.3,0.1-0.6,0.1-0.9l0.1-0.6c0-0.3,0.1-0.6,0.1-1c0-0.3,0.1-0.7,0.1-1H69
			c0.1,0.3,0.3,0.6,0.4,1c0.1,0.3,0.3,0.6,0.4,1l0.8,1.9h0.1l0.8-1.9c0.1-0.3,0.3-0.7,0.4-1s0.3-0.6,0.4-1h0.4c0,0.3,0.1,0.6,0.1,1
			c0,0.3,0.1,0.7,0.1,1l0.1,0.6c0,0.3,0.1,0.6,0.1,0.9s0.1,0.6,0.1,1h-0.4c0-0.4-0.1-0.8-0.1-1.1c0-0.4-0.1-0.8-0.1-1.1l-0.2-1.4h0
			l-0.7,1.5c-0.2,0.4-0.3,0.7-0.5,1.1c-0.2,0.4-0.3,0.7-0.5,1.1h-0.3c-0.2-0.4-0.3-0.7-0.5-1.1s-0.3-0.7-0.5-1.1l-0.7-1.6h0
			l-0.2,1.4c0,0.4-0.1,0.8-0.1,1.1c0,0.4-0.1,0.8-0.1,1.1H68z"/>
		<path d="M75.7,29.9c-0.3,0-0.5-0.1-0.7-0.2c-0.2-0.1-0.4-0.2-0.5-0.4c-0.1-0.2-0.2-0.4-0.2-0.7c0-0.2,0-0.4,0.1-0.6
			c0.1-0.2,0.2-0.3,0.3-0.4c0.1-0.1,0.3-0.2,0.5-0.2c0.2-0.1,0.3-0.1,0.5-0.1l1.5-0.3c0-0.4,0-0.7-0.1-0.9c-0.1-0.2-0.2-0.3-0.4-0.4
			c-0.2-0.1-0.4-0.1-0.6-0.1c-0.1,0-0.2,0-0.3,0c-0.1,0-0.2,0-0.4,0.1s-0.3,0.1-0.4,0.1s-0.3,0.1-0.5,0.2l0-0.4
			c0.1,0,0.2-0.1,0.4-0.1s0.3-0.1,0.4-0.1s0.3-0.1,0.4-0.1c0.2,0,0.3,0,0.4,0c0.3,0,0.6,0.1,0.8,0.2c0.2,0.1,0.4,0.3,0.5,0.5
			c0.1,0.2,0.2,0.5,0.2,0.9c0,0.1,0,0.3,0,0.5c0,0.2,0,0.4,0,0.6v0.6c0,0.2,0,0.4,0,0.6c0,0.2,0,0.4,0,0.7h-0.4l0-0.7h-0.1
			c-0.1,0.1-0.2,0.3-0.4,0.4c-0.2,0.1-0.3,0.2-0.5,0.3C76.2,29.9,75.9,29.9,75.7,29.9z M75.8,29.5c0.2,0,0.4,0,0.6-0.1
			c0.2-0.1,0.4-0.2,0.5-0.3s0.3-0.3,0.4-0.6l0-1.2c-0.1,0-0.1,0.1-0.2,0.1c-0.1,0-0.2,0.1-0.4,0.1c-0.2,0-0.4,0.1-0.8,0.2
			c-0.2,0-0.4,0.1-0.6,0.2S75.1,28,75,28.1s-0.2,0.3-0.2,0.5c0,0.3,0.1,0.5,0.3,0.7S75.5,29.5,75.8,29.5z"/>
		<path d="M79.3,29.8c0-0.3,0-0.7,0-1s0-0.6,0-1v-0.5c0-0.2,0-0.5,0-0.7c0-0.2,0-0.4,0-0.7c0-0.2,0-0.4,0-0.7h2.9v0.4
			c-0.3,0-0.6,0-0.9,0c-0.3,0-0.6,0-0.9,0h-0.8l0.3-0.3c0,0.2,0,0.4,0,0.6c0,0.2,0,0.4,0,0.6s0,0.4,0,0.7v0.5c0,0.4,0,0.7,0,1
			s0,0.6,0,1H79.3z"/>
		<path d="M84.3,29.9c-0.3,0-0.5-0.1-0.7-0.2c-0.2-0.1-0.4-0.2-0.5-0.4C83,29.2,83,28.9,83,28.7c0-0.2,0-0.4,0.1-0.6
			c0.1-0.2,0.2-0.3,0.3-0.4c0.1-0.1,0.3-0.2,0.5-0.2c0.2-0.1,0.3-0.1,0.5-0.1l1.5-0.3c0-0.4,0-0.7-0.1-0.9c-0.1-0.2-0.2-0.3-0.4-0.4
			c-0.2-0.1-0.4-0.1-0.6-0.1c-0.1,0-0.2,0-0.3,0c-0.1,0-0.2,0-0.4,0.1s-0.3,0.1-0.4,0.1s-0.3,0.1-0.5,0.2l0-0.4
			c0.1,0,0.2-0.1,0.4-0.1s0.3-0.1,0.4-0.1s0.3-0.1,0.4-0.1c0.2,0,0.3,0,0.4,0c0.3,0,0.6,0.1,0.8,0.2c0.2,0.1,0.4,0.3,0.5,0.5
			c0.1,0.2,0.2,0.5,0.2,0.9c0,0.1,0,0.3,0,0.5c0,0.2,0,0.4,0,0.6v0.6c0,0.2,0,0.4,0,0.6c0,0.2,0,0.4,0,0.7h-0.4l0-0.7h-0.1
			c-0.1,0.1-0.2,0.3-0.4,0.4c-0.2,0.1-0.3,0.2-0.5,0.3C84.7,29.9,84.5,29.9,84.3,29.9z M84.4,29.5c0.2,0,0.4,0,0.6-0.1
			c0.2-0.1,0.4-0.2,0.5-0.3s0.3-0.3,0.4-0.6l0-1.2c-0.1,0-0.1,0.1-0.2,0.1c-0.1,0-0.2,0.1-0.4,0.1c-0.2,0-0.4,0.1-0.8,0.2
			c-0.2,0-0.4,0.1-0.6,0.2s-0.3,0.2-0.4,0.3s-0.2,0.3-0.2,0.5c0,0.3,0.1,0.5,0.3,0.7S84.1,29.5,84.4,29.5z"/>
		<path d="M89.2,29.9c-0.2,0-0.4,0-0.5,0c-0.2,0-0.3-0.1-0.5-0.1c-0.1,0-0.3-0.1-0.4-0.1c-0.1,0-0.2-0.1-0.3-0.1l0.1-0.4
			c0.1,0.1,0.3,0.2,0.5,0.2c0.2,0.1,0.4,0.1,0.5,0.1s0.4,0,0.6,0c0.3,0,0.6,0,0.8-0.1c0.2-0.1,0.3-0.2,0.4-0.3
			c0.1-0.1,0.1-0.3,0.1-0.4c0-0.2-0.1-0.3-0.2-0.5s-0.3-0.2-0.5-0.3c-0.2-0.1-0.4-0.1-0.7-0.1c-0.2,0-0.3,0-0.5,0
			c-0.1,0-0.3,0-0.4,0v-0.4c0.1,0,0.2,0,0.4,0c0.1,0,0.3,0,0.4,0c0.4,0,0.7-0.1,0.9-0.3c0.2-0.2,0.3-0.4,0.3-0.6
			c0-0.2-0.1-0.3-0.2-0.5c-0.1-0.1-0.2-0.2-0.4-0.3c-0.2-0.1-0.4-0.1-0.6-0.1c-0.2,0-0.3,0-0.5,0c-0.2,0-0.3,0.1-0.5,0.1
			c-0.2,0.1-0.3,0.1-0.5,0.2l0-0.4c0.1-0.1,0.3-0.1,0.4-0.2s0.3-0.1,0.5-0.1c0.2,0,0.4-0.1,0.6-0.1c0.3,0,0.6,0,0.9,0.1
			c0.2,0.1,0.4,0.2,0.5,0.4c0.1,0.2,0.2,0.4,0.2,0.6c0,0.3-0.1,0.5-0.2,0.7c-0.2,0.2-0.3,0.3-0.5,0.4v0.1c0.1,0,0.3,0.1,0.4,0.2
			c0.1,0.1,0.3,0.2,0.4,0.3s0.2,0.3,0.2,0.6c0,0.2-0.1,0.4-0.2,0.6c-0.1,0.2-0.3,0.4-0.5,0.5C90,29.9,89.6,29.9,89.2,29.9z"/>
		<path d="M92.2,29.8c0-0.3,0-0.7,0-1s0-0.6,0-1v-0.5c0-0.2,0-0.5,0-0.7c0-0.2,0-0.4,0-0.7c0-0.2,0-0.4,0-0.7l0.4,0
			c0,0.2,0,0.4,0,0.7c0,0.2,0,0.4,0,0.7s0,0.5,0,0.7v1.8h0l1.1-1.6c0.2-0.4,0.5-0.7,0.7-1.1c0.2-0.4,0.5-0.7,0.7-1.1h0.4
			c0,0.2,0,0.4,0,0.7c0,0.2,0,0.4,0,0.7c0,0.2,0,0.5,0,0.7v0.5c0,0.4,0,0.7,0,1s0,0.6,0,1h-0.4c0-0.3,0-0.7,0-1c0-0.3,0-0.6,0-1
			v-1.8h0l-1.1,1.6c-0.2,0.4-0.5,0.7-0.7,1.1s-0.5,0.7-0.7,1.1H92.2z"/>
		<path d="M97.3,29.8c0-0.3,0-0.7,0-1s0-0.6,0-1v-0.5c0-0.2,0-0.5,0-0.7c0-0.2,0-0.4,0-0.7c0-0.2,0-0.4,0-0.7l0.4,0
			c0,0.2,0,0.4,0,0.7s0,0.4,0,0.7c0,0.2,0,0.5,0,0.7v0.5c0,0.4,0,0.7,0,1s0,0.6,0,1H97.3z M97.6,27.8v-0.4h3v0.4H97.6z M100.4,29.8
			c0-0.3,0-0.7,0-1s0-0.6,0-1v-0.5c0-0.2,0-0.5,0-0.7c0-0.2,0-0.4,0-0.7c0-0.2,0-0.4,0-0.7h0.4c0,0.2,0,0.4,0,0.7c0,0.2,0,0.4,0,0.7
			c0,0.2,0,0.5,0,0.7v0.5c0,0.4,0,0.7,0,1s0,0.6,0,1H100.4z"/>
	</g>
</g>
</svg>
