<svg width="167" height="32" xmlns="http://www.w3.org/2000/svg" viewBox="0 0 124 24"><a class="focus-ring" href="//ya.ru/" aria-label="Яндекс"><circle cx="11.2" cy="11.9" r="11.2" fill="#FC3F1D"></circle><path d="M12.8 7h-1.1c-2 0-2.9 1-2.9 2.4 0 1.6.6 2.4 2.1 3.4l1.1.8-3.2 5H6.2l3.1-4.5c-1.8-1.3-2.7-2.4-2.7-4.5 0-2.6 1.8-4.4 5.2-4.4h3.4v13.4h-2.3V7z" fill="#FFF"></path></a><a class="focus-ring" href="/" aria-label="Маркет"><path d="M35 23.1c6.2 0 11.2-5 11.2-11.2C46.2 5.7 41.2.7 35 .7c-6.2 0-11.2 5-11.2 11.2 0 6.2 5 11.2 11.2 11.2z" fill="#FED42B"></path><path d="M58 19.7h2.4L63.8 7v12.7h2.8V2.9h-3.8l-3.4 12.4L56 2.9h-3.9v16.8h2.4V7.1L58 19.7zm20.1-8.2c0-2.9-1.5-4.1-4.5-4.1-1.9 0-3.4.6-4.3 1.1v2.4c.8-.6 2.5-1.2 3.9-1.2s2 .5 2 1.8v.7h-.5c-4.4 0-6.4 1.5-6.4 3.9 0 2.5 1.5 3.8 3.7 3.8 1.7 0 2.4-.6 3-1.1h.1c0 .3.1.7.2 1h2.8c-.1-1-.1-2-.1-3v-5.3zm-2.9 5.3c-.4.5-1 1-2.1 1-1.2 0-1.8-.7-1.8-1.8 0-1.4 1-1.9 3.5-1.9h.4v2.7zm7.9-9.2h-2.7v15.7h2.9v-4.9c.7 1.1 1.8 1.7 3 1.7 2.8 0 4.7-2.2 4.7-6.3s-1.9-6.3-4.6-6.3c-1.4 0-2.5.6-3.2 1.8l-.1-1.7zm2.5 10.1c-1.5 0-2.3-1.2-2.3-4s.8-4.1 2.4-4.1c1.6 0 2.3 1.2 2.3 4 .1 2.9-.8 4.1-2.4 4.1zm14.5 2h3.3l-4.6-6.5 4.1-5.6H100l-4.1 5.6V7.6H93v12.2h2.9v-6l4.2 5.9zm12.9-.8v-2.3c-.9.6-2.4 1.1-3.8 1.1-2.1 0-2.9-1-3-3h6.9v-1.5c0-4.2-1.9-5.8-4.7-5.8-3.5 0-5.2 2.7-5.2 6.4 0 4.2 2.1 6.3 5.8 6.3 1.8-.1 3.2-.6 4-1.2zm-4.6-9.3c1.4 0 1.9 1.2 1.9 2.7v.2h-4c0-1.9.7-2.9 2.1-2.9zm15 .3V7.6h-9.6v2.3h3.4v9.9h2.9V9.9h3.3z"></path><clipPath id="circle"><path d="M35 23.1c6.2 0 11.2-5 11.2-11.2C46.2 5.7 41.2.7 35 .7c-6.2 0-11.2 5-11.2 11.2 0 6.2 5 11.2 11.2 11.2z"></path></clipPath><path d="m29.5 6.8-9.8 12.8 2.6 3 7.3-9.6-.7 5.3 4.1 1.4 4.9-8c-.2 1.5-.6 4.9 2.7 5.9 5.1 1.6 9.6-7.7 11.7-12.3l-3-1.6C47 8.5 43.4 13.9 42 13.5c-1.4-.4-.1-4.9.7-7.8l-4.5-1.5-5.4 8.8.7-4.8-4-1.4z" clip-path="url(#circle)"></path><rect x="20%" y="0" width="80%" height="100%" fill-opacity="0"></rect></a></svg>