<?xml version="1.0" encoding="utf-8"?>
<!-- Generator: Adobe Illustrator 27.7.0, SVG Export Plug-In . SVG Version: 6.00 Build 0)  -->
<svg version="1.1" id="Layer_1" xmlns="http://www.w3.org/2000/svg" xmlns:xlink="http://www.w3.org/1999/xlink" x="0px" y="0px"
	 viewBox="0 0 1022.2 240.5" style="enable-background:new 0 0 1022.2 240.5;" xml:space="preserve">
<style type="text/css">
	.st0{fill:#005BFF;}
	.st1{fill:#FFFFFF;}
</style>
<rect class="st0" width="1022.2" height="240.5"/>
<g>
	<path class="st1" d="M449.4,160.2h-64.7l82.6-109.3c1.8-2.4,1.3-5.9-1.1-7.7c-0.9-0.7-2.1-1.1-3.3-1.1H343.4
		c-10.5,0-19.1,8.6-19.1,19.1s8.6,19.1,19.1,19.1h53.7l-82.9,109.4c-1.9,2.4-1.4,5.8,1,7.7c1,0.8,2.2,1.2,3.4,1.1h130.7
		c10.5-0.5,18.6-9.5,18.1-20.1c-0.5-9.8-8.3-17.6-18.1-18.1L449.4,160.2L449.4,160.2z M867,42.1c-10.5,0-19.1,8.6-19.1,19.1v64.1
		L744.7,43.4c-2.3-1.9-5.8-1.6-7.7,0.8c-0.8,1-1.2,2.2-1.2,3.5v131.7c0,10.5,8.6,19.1,19.1,19.1S774,190,774,179.4v-64.1l103.2,82
		c2.4,1.9,5.9,1.5,7.8-0.9c0.8-1,1.2-2.2,1.2-3.4V61.2C886.1,50.6,877.6,42.1,867,42.1 M593.9,163.8c-43.7,0-76.3-23-76.3-43.6
		s32.7-43.6,76.3-43.6c43.7,0,76.3,23,76.3,43.6S637.7,163.8,593.9,163.8 M593.9,38.4c-63.2,0-114.5,36.6-114.5,81.8
		S530.7,202,593.9,202s114.5-36.6,114.5-81.8S657.1,38.4,593.9,38.4 M218,163.9c-24.1,0-43.7-19.5-43.7-43.6s19.5-43.7,43.6-43.7
		s43.7,19.5,43.7,43.6v0.1C261.6,144.3,242.1,163.8,218,163.9 M218,38.4c-45.2,0-81.8,36.6-81.9,81.8c0,45.2,36.6,81.8,81.8,81.9
		c45.2,0,81.8-36.6,81.9-81.8v-0.1C299.7,75,263.1,38.4,218,38.4"/>
</g>
</svg>
