<?xml version="1.0" encoding="UTF-8"?>
<svg id="Layer_1" data-name="Layer 1" xmlns="http://www.w3.org/2000/svg" width="283.46" height="283.46" viewBox="0 0 283.46 283.46">
  <rect x="118.39" y="125.39" width="50.4" height="18.24" rx="6" ry="6" style="fill: #0e8c29;"/>
  <g>
    <path d="m130.69,137.82c-.83,0-1.54-.18-2.14-.53-.59-.35-1.05-.85-1.36-1.5-.32-.65-.47-1.42-.47-2.32s.16-1.67.47-2.31c.32-.64.77-1.14,1.36-1.49.59-.35,1.3-.53,2.14-.53.58,0,1.12.09,1.62.28.5.18.91.45,1.25.8l-.38.8c-.37-.34-.75-.59-1.15-.75-.4-.16-.83-.23-1.31-.23-.95,0-1.68.3-2.18.9s-.76,1.44-.76,2.53.25,1.93.76,2.54c.5.6,1.23.91,2.18.91.48,0,.92-.08,1.31-.23.4-.16.78-.41,1.15-.75l.38.8c-.34.34-.75.61-1.25.8-.5.19-1.04.28-1.62.28Z" style="fill: #fff;"/>
    <path d="m135.02,137.72v-5.83h.97v2.44h1.09l1.91-2.44h1.07l-2.18,2.83-.28-.31c.22.02.42.08.59.17.17.09.33.22.48.4.15.18.32.42.49.73l1.2,2.02h-1.04l-1.06-1.76c-.14-.22-.26-.4-.38-.52s-.26-.21-.41-.26c-.15-.05-.34-.07-.56-.07h-.91v2.62h-.97Z" style="fill: #fff;"/>
    <path d="m143.77,137.82c-.57,0-1.06-.12-1.48-.37-.42-.25-.74-.6-.97-1.05s-.34-.99-.34-1.6.11-1.15.34-1.6c.23-.45.55-.8.97-1.05.42-.25.91-.37,1.48-.37s1.06.12,1.48.37.74.6.97,1.05c.23.45.34.99.34,1.6s-.11,1.15-.34,1.6c-.23.45-.55.8-.97,1.05-.42.25-.91.37-1.48.37Zm0-.78c.55,0,.99-.19,1.31-.58s.49-.94.49-1.66-.16-1.28-.49-1.67-.76-.58-1.31-.58-.98.19-1.31.58c-.33.38-.49.94-.49,1.67s.16,1.27.49,1.66c.33.39.76.58,1.31.58Z" style="fill: #fff;"/>
    <path d="m148.13,139.88v-7.99h.95v1.38h-.12c.13-.46.38-.82.76-1.09s.83-.4,1.36-.4.97.12,1.36.37c.39.24.69.59.9,1.04.21.45.32.99.32,1.61s-.11,1.15-.32,1.6-.51.8-.89,1.05c-.38.25-.84.37-1.37.37s-.98-.13-1.36-.4-.63-.63-.77-1.07h.14v3.53h-.97Zm2.75-2.83c.55,0,.99-.19,1.31-.58.32-.39.49-.94.49-1.66s-.16-1.28-.49-1.67c-.32-.38-.76-.58-1.31-.58s-.98.19-1.31.58c-.33.38-.49.94-.49,1.67s.16,1.27.49,1.66c.33.39.76.58,1.31.58Z" style="fill: #fff;"/>
    <path d="m157.67,137.82c-.57,0-1.06-.12-1.48-.37-.42-.25-.74-.6-.97-1.05-.23-.45-.34-.99-.34-1.6s.11-1.15.34-1.6c.23-.45.55-.8.97-1.05s.91-.37,1.48-.37,1.06.12,1.48.37.74.6.97,1.05c.23.45.34.99.34,1.6s-.11,1.15-.34,1.6c-.23.45-.55.8-.97,1.05-.42.25-.91.37-1.48.37Zm0-.78c.55,0,.99-.19,1.31-.58.32-.39.49-.94.49-1.66s-.16-1.28-.49-1.67c-.32-.38-.76-.58-1.31-.58s-.98.19-1.31.58-.49.94-.49,1.67.16,1.27.49,1.66.76.58,1.31.58Z" style="fill: #fff;"/>
  </g>
</svg>