<?xml version="1.0" encoding="utf-8"?>
<!-- Generator: Adobe Illustrator 27.7.0, SVG Export Plug-In . SVG Version: 6.00 Build 0)  -->
<svg version="1.1" id="Layer_1" xmlns="http://www.w3.org/2000/svg" xmlns:xlink="http://www.w3.org/1999/xlink" x="0px" y="0px"
	 viewBox="0 0 261.2 58.3" style="enable-background:new 0 0 261.2 58.3;" xml:space="preserve">
<style type="text/css">
	.st0{fill:url(#SVGID_1_);}
	.st1{fill:#FFFFFF;}
</style>
<linearGradient id="SVGID_1_" gradientUnits="userSpaceOnUse" x1="0" y1="29.1555" x2="261.2381" y2="29.1555">
	<stop  offset="0" style="stop-color:#CB11AB"/>
	<stop  offset="1" style="stop-color:#481173"/>
</linearGradient>
<rect class="st0" width="261.2" height="58.3"/>
<path class="st1" d="M17.9,42.6l-7.3-27h4.8l5.6,20.7l6-20.7l4.5,0l6.1,20.9l5.7-20.8l4.8,0l-7.3,27l-5.6,0l-5.9-20.2l-5.9,20.2
	C23.5,42.6,17.9,42.6,17.9,42.6z M51.4,15.7H56v27h-4.6V15.7z M65.7,38.4h11.1v4.2H61.3v-27h4.5V38.4z M90.9,15.7
	c3.8,0,6.9,1.3,9.3,3.9c2.5,2.6,3.8,5.8,3.8,9.6c0,3.8-1.3,7-3.8,9.6c-2.5,2.6-5.6,3.9-9.3,3.9H80.2v-27L90.9,15.7L90.9,15.7
	L90.9,15.7z M90.9,38.4c2.6,0,4.7-0.9,6.3-2.6c1.6-1.7,2.5-4,2.5-6.6c0-2.7-0.8-4.9-2.5-6.6c-1.6-1.7-3.7-2.6-6.3-2.6h-6.2v18.5
	C84.7,38.4,90.9,38.4,90.9,38.4z M128.2,34.9c0,2.2-0.8,4-2.4,5.5c-1.6,1.5-3.5,2.2-5.8,2.2h-11.7v-27h10.9c2.2,0,4.1,0.7,5.7,2.1
	c1.6,1.4,2.3,3.2,2.3,5.3c0,2.4-0.9,4.2-2.8,5.5C126.7,29.9,128.2,32.1,128.2,34.9z M112.7,19.8v7.1h6.4c2,0,3.5-1.6,3.5-3.5
	s-1.5-3.5-3.5-3.5H112.7z M120,38.5c2.1,0,3.7-1.7,3.7-3.8c0-2.1-1.6-3.8-3.7-3.8h-7.2v7.6L120,38.5C120,38.5,120,38.5,120,38.5z
	 M136.9,38.4H149v4.2h-16.6v-27h16.4v4.2h-11.9v7h10.9v4.2h-10.9L136.9,38.4L136.9,38.4z M168.6,42.6l-5.8-9.8h-5.3v9.8h-4.5v-27
	H164c2.5,0,4.5,0.8,6.2,2.6c1.7,1.6,2.6,3.7,2.6,6.1c0,3.4-2.2,6.6-5.4,7.8l6.2,10.5H168.6L168.6,42.6z M157.5,19.8v9h6.4
	c2.4,0,4.3-2,4.3-4.5c0-2.5-1.9-4.5-4.3-4.5H157.5z M192.6,42.6l-5.8-9.8h-5.3v9.8H177v-27H188c2.5,0,4.5,0.8,6.2,2.6
	c1.7,1.6,2.6,3.7,2.6,6.1c0,3.4-2.2,6.6-5.4,7.8l6.2,10.5H192.6L192.6,42.6z M181.5,19.8v9h6.4c2.4,0,4.3-2,4.3-4.5
	c0-2.5-1.9-4.5-4.3-4.5H181.5z M200.9,15.6h4.5v27h-4.5V15.6z M215.1,38.4h12.1v4.2h-16.6v-27H227v4.2h-11.9v7h10.9v4.2h-10.9
	L215.1,38.4L215.1,38.4z M230.4,36.5l3.9-2.2c1.1,3,3.3,4.5,6.8,4.5c3.4,0,5.1-1.4,5.1-3.5c0-1.1-0.5-1.9-1.4-2.5
	c-0.9-0.6-2.5-1.2-4.9-1.9c-2.6-0.8-3.9-1.3-5.7-2.5c-1.8-1.2-2.6-3-2.6-5.4c0-2.4,0.9-4.3,2.6-5.7c1.7-1.4,3.8-2.1,6.2-2.1
	c4.4,0,7.8,2.2,9.5,5.9l-3.8,2.1c-1.1-2.5-3.1-3.8-5.7-3.8c-2.6,0-4.3,1.3-4.3,3.4c0,2,1.3,2.9,5.5,4.2c1,0.3,1.8,0.6,2.3,0.8
	c0.5,0.2,1.2,0.4,2,0.8c0.9,0.3,1.6,0.7,2,1.1c1.5,1.1,3,3,2.8,5.5c0,2.4-0.9,4.4-2.7,5.8c-1.8,1.4-4.1,2.1-7,2.1
	C235.6,43.1,231.8,40.6,230.4,36.5L230.4,36.5z"/>
</svg>
